# xmcd
#
# Track frame offsets:
#	150
#	11167
#	21348
#	32400
#	43418
#	53125
#	69491
#	79847
#	99926
#	116677
#	128915
#	160936
#	170206
#	180354
#	193555
#	200831
#	211067
#	232442
#
# Disc length: 3269 seconds
#
# Revision: 2
# Processed by: cddbd v1.5.2PL0 Copyright (c) Steve Scherf et al.
# Submitted via: EZCDAudioConverter 1.3.4.1
#
DISCID=020cc312
DTITLE=Buzzcocks - Another Music In A Different Kitchen 1/2
DYEAR=1976
DGENRE=
TTITLE0=Fast Cars
TTITLE1=No Reply
TTITLE2=You Tear Me Up
TTITLE3=Get On Our Own
TTITLE4=Love Battery
TTITLE5=Sixteen
TTITLE6=I Don't Mind
TTITLE7=Fiction Romance
TTITLE8=Autonomy
TTITLE9=I Need
TTITLE10=Moving Away From The Pulsebeat
TTITLE11=Orgasm Addict
TTITLE12=Whatever Happened To...?
TTITLE13=What Do I Get?
TTITLE14=Oh Shit
TTITLE15=Fast Cars [Peel Session]
TTITLE16=Moving Away From The Pulsebeat [Peel Session]
TTITLE17=What Do I Get? [Peel Session]
EXTD=
EXTT0=
EXTT1=
EXTT2=
EXTT3=
EXTT4=
EXTT5=
EXTT6=
EXTT7=
EXTT8=
EXTT9=
EXTT10=
EXTT11=
EXTT12=
EXTT13=
EXTT14=
EXTT15=
EXTT16=
EXTT17=
PLAYORDER=
